<?xml version="1.0" encoding="UTF-8"?>
<svg version="1.1" xmlns="http://www.w3.org/2000/svg" width="249" height="66">
<path d="M0 0 C0.66 0 1.32 0 2 0 C3.48753134 2.15770336 4.84672553 4.3146994 6.1875 6.5625 C11.22529039 14.82986363 16.49444027 22.93207333 21.82104492 31.01586914 C25.04742972 35.93151833 28.15809505 40.85172496 31 46 C27.92877927 46.42361665 25.9617598 46.68554295 23 46 C20.41244324 43.70526144 18.76884373 40.94973378 17 38 C16.51144531 37.236875 16.02289063 36.47375 15.51953125 35.6875 C14.3201416 33.80610447 13.14936501 31.91221789 12 30 C11.9071875 30.71671875 11.814375 31.4334375 11.71875 32.171875 C10.8779426 35.48026933 9.50770202 37.50175215 7.5 40.25 C6.8709375 41.12140625 6.241875 41.9928125 5.59375 42.890625 C4 45 4 45 3 46 C0.47905924 46.08847743 -2.01430893 46.11527301 -4.53515625 46.09765625 C-5.66503212 46.09553383 -5.66503212 46.09553383 -6.81773376 46.09336853 C-9.2326956 46.08775376 -11.64756601 46.07519883 -14.0625 46.0625 C-15.69596221 46.0574869 -17.32942586 46.05292366 -18.96289062 46.04882812 C-22.97529585 46.03777954 -26.98763241 46.02050506 -31 46 C-26.23024714 38.36597753 -21.23858976 30.92599314 -16.0625 23.5625 C-11.03665737 16.39238259 -6.07417851 9.21109303 -1.3828125 1.81640625 C-0.92648438 1.21699219 -0.47015625 0.61757812 0 0 Z M0 12 C-1.5319224 13.77357673 -1.5319224 13.77357673 -3.08203125 16.09375 C-3.98598633 17.393125 -3.98598633 17.393125 -4.90820312 18.71875 C-5.53662109 19.6365625 -6.16503906 20.554375 -6.8125 21.5 C-7.42931641 22.386875 -8.04613281 23.27375 -8.68164062 24.1875 C-12.26980887 29.37337547 -15.70309561 34.62447589 -19 40 C-8.27512758 41.65933905 -8.27512758 41.65933905 1.68505859 38.82226562 C4.56641918 35.6518365 6.37987057 31.93042229 8 28 C8.99 28.33 9.98 28.66 11 29 C9.69166571 24.59091345 7.97608606 20.99650745 5.5 17.125 C4.8915625 16.15820312 4.283125 15.19140625 3.65625 14.1953125 C3.1096875 13.47085937 2.563125 12.74640625 2 12 C1.34 12 0.68 12 0 12 Z " fill="#5BA8EC" transform="translate(32,6)"/>
<path d="M0 0 C5.10880829 -0.79274611 5.10880829 -0.79274611 8 0 C10.53166875 2.71704199 12.28204023 5.72025861 14 9 C14.4125 8.3503125 14.825 7.700625 15.25 7.03125 C19.91072697 0.28984135 19.91072697 0.28984135 23.24609375 -0.59765625 C25.4375 -0.5625 25.4375 -0.5625 29 0 C28.2734434 5.06207469 24.65206587 8.40913908 21.51953125 12.24609375 C19.69138076 14.85721559 19.69138076 14.85721559 20.50390625 17.4921875 C22.22061533 20.36980428 24.09508528 23.02096328 26.125 25.6875 C30 30.78291815 30 30.78291815 30 33 C26.84005495 33.56879011 24.13414169 33.7797133 21 33 C18.40155657 30.30706772 16.6833009 27.32699471 15 24 C11.44573213 25.18475596 11.20822989 25.98261792 9.3125 29.0625 C6.63545304 32.84543034 6.63545304 32.84543034 3.83203125 33.52734375 C1.625 33.5 1.625 33.5 -2 33 C-1.71125 32.443125 -1.4225 31.88625 -1.125 31.3125 C0.051797 29.02153538 0.051797 29.02153538 0.8125 26.5625 C2 24 2 24 4.5625 21.5 C7.24274919 18.75102648 7.81046383 17.76285036 8 14 C6.60933161 11.52727277 6.60933161 11.52727277 4.5625 9.3125 C1 5.16438356 1 5.16438356 1 3 C0.34 2.67 -0.32 2.34 -1 2 C-0.67 1.34 -0.34 0.68 0 0 Z " fill="#F7F7F7" transform="translate(148,18)"/>
<path d="M0 0 C3.91641711 -0.11618764 7.83239101 -0.18724654 11.75 -0.25 C13.41675781 -0.30027344 13.41675781 -0.30027344 15.1171875 -0.3515625 C16.18710938 -0.36445313 17.25703125 -0.37734375 18.359375 -0.390625 C19.34389648 -0.41157227 20.32841797 -0.43251953 21.34277344 -0.45410156 C24.74912244 0.12801982 25.90117552 1.30848017 28 4 C28.53125 6.875 28.53125 6.875 28.5 10 C28.5103125 11.03125 28.520625 12.0625 28.53125 13.125 C28 16 28 16 26.515625 18.359375 C22.80797947 20.77740469 19.57193514 20.4363521 15.25 20.25 C14.06083984 20.22292969 14.06083984 20.22292969 12.84765625 20.1953125 C10.89791652 20.14833082 8.94880122 20.07659044 7 20 C7 24.29 7 28.58 7 33 C4.69 33 2.38 33 0 33 C0 26.73 0 20.46 0 14 C2.76565382 13.07811539 4.38283702 12.88214778 7.23046875 12.90234375 C8.43413086 12.90717773 8.43413086 12.90717773 9.66210938 12.91210938 C10.49548828 12.92048828 11.32886719 12.92886719 12.1875 12.9375 C13.4549707 12.94426758 13.4549707 12.94426758 14.74804688 12.95117188 C16.83206155 12.96294597 18.91603977 12.9808811 21 13 C21 11.02 21 9.04 21 7 C14.07 6.67 7.14 6.34 0 6 C0 4.02 0 2.04 0 0 Z " fill="#FAFAFA" transform="translate(97,18)"/>
<path d="M0 0 C4.18298368 3.67625644 6.79802321 8.18173878 9.6875 12.875 C10.75463964 14.58889589 11.82235284 16.30243478 12.890625 18.015625 C13.41591797 18.86060547 13.94121094 19.70558594 14.48242188 20.57617188 C16.59552026 23.95114626 18.76537285 27.2878653 20.9375 30.625 C24.17640841 35.64236357 27.21794132 40.71548653 30 46 C26.96020534 46.3957897 24.93593952 46.65032784 22 46 C19.5613038 43.84236604 18.13989563 41.19805653 16.5625 38.375 C15.62643573 36.817628 14.69023563 35.26033763 13.75390625 33.703125 C13.29516113 32.91615234 12.83641602 32.12917969 12.36376953 31.31835938 C10.33109705 27.86288893 8.17067952 24.49477754 6 21.125 C5.29875 20.01382812 4.5975 18.90265625 3.875 17.7578125 C2.3678212 15.54100368 0.9857049 13.77472376 -1 12 C-1.2475 12.70125 -1.495 13.4025 -1.75 14.125 C-3.16088026 17.37002459 -4.97895398 20.10316737 -7 23 C-10 22 -10 22 -11.51953125 19.953125 C-12.18736659 15.84838093 -10.65446347 14.21544713 -8.31445312 10.921875 C-7.77755859 10.20515625 -7.24066406 9.4884375 -6.6875 8.75 C-6.16220703 8.0178125 -5.63691406 7.285625 -5.09570312 6.53125 C-1.38045058 1.38045058 -1.38045058 1.38045058 0 0 Z " fill="#61A7E5" transform="translate(59,6)"/>
<path d="M0 0 C1.5631897 0.00785522 1.5631897 0.00785522 3.15795898 0.01586914 C4.28266602 0.0190918 5.40737305 0.02231445 6.56616211 0.02563477 C7.75016602 0.03401367 8.93416992 0.04239258 10.15405273 0.05102539 C11.34192383 0.05553711 12.52979492 0.06004883 13.75366211 0.06469727 C16.69967499 0.07652864 19.64558954 0.09301252 22.59155273 0.11352539 C22.59155273 2.09352539 22.59155273 4.07352539 22.59155273 6.11352539 C16.32155273 6.11352539 10.05155273 6.11352539 3.59155273 6.11352539 C3.92155273 7.76352539 4.25155273 9.41352539 4.59155273 11.11352539 C7.76329073 12.69939439 11.22669096 12.49218984 14.71655273 12.67602539 C15.84770508 12.74080078 15.84770508 12.74080078 17.00170898 12.80688477 C18.86477161 12.91300859 20.72813798 13.0137754 22.59155273 13.11352539 C22.59155273 15.42352539 22.59155273 17.73352539 22.59155273 20.11352539 C19.17504754 20.20077245 15.7588296 20.25399864 12.34155273 20.30102539 C11.3734668 20.32616211 10.40538086 20.35129883 9.40795898 20.37719727 C8.47338867 20.38686523 7.53881836 20.3965332 6.57592773 20.40649414 C5.71708984 20.42220459 4.85825195 20.43791504 3.97338867 20.45410156 C1.04619419 20.03554516 -0.28182146 19.14081773 -2.40844727 17.11352539 C-3.5397561 13.71959888 -3.54136667 11.06017667 -3.53344727 7.48852539 C-3.53731445 5.73668945 -3.53731445 5.73668945 -3.54125977 3.94946289 C-3.36372407 0.15855364 -3.36372407 0.15855364 0 0 Z " fill="#FCFCFC" transform="translate(188.408447265625,30.886474609375)"/>
<path d="M0 0 C2.31 0 4.62 0 7 0 C7.97986907 6.98156711 8.05016397 13.80538729 7.9375 20.83984375 C7.771779 23.90142473 7.771779 23.90142473 9 26 C11.71446979 26.31241455 14.33909361 26.51336592 17.0625 26.625 C17.82111328 26.66367187 18.57972656 26.70234375 19.36132812 26.7421875 C21.24047195 26.83673562 23.12020336 26.91946756 25 27 C25 28.98 25 30.96 25 33 C21.75030231 33.11638036 18.5011417 33.18730581 15.25 33.25 C13.86941406 33.30027344 13.86941406 33.30027344 12.4609375 33.3515625 C5.61470446 33.45078327 5.61470446 33.45078327 2.421875 31.109375 C-0.04036363 27.45660341 -0.11825592 25.30676663 -0.09765625 20.8984375 C-0.09443359 19.68671875 -0.09121094 18.475 -0.08789062 17.2265625 C-0.07951172 15.95554687 -0.07113281 14.68453125 -0.0625 13.375 C-0.05798828 12.09625 -0.05347656 10.8175 -0.04882812 9.5 C-0.03701203 6.33328708 -0.02053815 3.16666644 0 0 Z " fill="#F8F8F8" transform="translate(218,18)"/>
<path d="M0 0 C2.31 0 4.62 0 7 0 C7 10.89 7 21.78 7 33 C4.69 33 2.38 33 0 33 C-1.90849948 31.09150052 -1.13059633 27.68521226 -1.1328125 25.15625 C-1.13376923 24.47195923 -1.13472595 23.78766846 -1.13571167 23.0826416 C-1.1363933 21.63338123 -1.13454023 20.18411782 -1.13037109 18.73486328 C-1.12502252 16.50937072 -1.1303166 14.28407999 -1.13671875 12.05859375 C-1.13605797 10.65364539 -1.1347768 9.24869715 -1.1328125 7.84375 C-1.13168457 6.55662109 -1.13055664 5.26949219 -1.12939453 3.94335938 C-1 1 -1 1 0 0 Z " fill="#F3F3F3" transform="translate(133,18)"/>
<path d="M0 0 C8.58 0 17.16 0 26 0 C26 1.98 26 3.96 26 6 C17.42 6 8.84 6 0 6 C0 4.02 0 2.04 0 0 Z " fill="#FDFDFD" transform="translate(185,18)"/>
<path d="M0 0 C2.0625 1.75 2.0625 1.75 4 4 C3.94061129 7.65982937 1.57849711 10.30401118 -0.5 13.1875 C-1.1290625 14.06792969 -1.758125 14.94835938 -2.40625 15.85546875 C-4 18 -4 18 -5 19 C-7.52094076 19.08847743 -10.01430893 19.11527301 -12.53515625 19.09765625 C-13.66503212 19.09553383 -13.66503212 19.09553383 -14.81773376 19.09336853 C-17.2326956 19.08775376 -19.64756601 19.07519883 -22.0625 19.0625 C-23.69596221 19.0574869 -25.32942586 19.05292366 -26.96289062 19.04882812 C-30.97529585 19.03777954 -34.98763241 19.02050506 -39 19 C-37 17 -37 17 -33.83544922 16.77294922 C-32.49182037 16.77326611 -31.1481659 16.78457819 -29.8046875 16.8046875 C-29.09724396 16.8075174 -28.38980042 16.81034729 -27.66091919 16.81326294 C-25.3987749 16.82446863 -23.13702485 16.84957321 -20.875 16.875 C-19.34245363 16.88502933 -17.80990106 16.89415526 -16.27734375 16.90234375 C-12.51807699 16.92440914 -8.75910536 16.95894104 -5 17 C-5 16.34 -5 15.68 -5 15 C-5.66 15 -6.32 15 -7 15 C-7.33 14.01 -7.66 13.02 -8 12 C-6.34765625 9.08203125 -6.34765625 9.08203125 -4.0625 5.8125 C-3.67642578 5.25369141 -3.29035156 4.69488281 -2.89257812 4.11914062 C-1.93757247 2.73968802 -0.96995907 1.36897944 0 0 Z " fill="#60AAEB" transform="translate(40,33)"/>
<path d="M0 0 C0.33 0.66 0.66 1.32 1 2 C1.66 2 2.32 2 3 2 C3 2.66 3 3.32 3 4 C0.29283758 4.90238747 -1.23776768 5.11851302 -4.01171875 5.09765625 C-5.14770508 5.09282227 -5.14770508 5.09282227 -6.30664062 5.08789062 C-7.09232422 5.07951172 -7.87800781 5.07113281 -8.6875 5.0625 C-9.48478516 5.05798828 -10.28207031 5.05347656 -11.10351562 5.04882812 C-13.06904257 5.0370585 -15.03453085 5.01912348 -17 5 C-17 2 -17 2 -16 1 C-13.30764224 0.76321284 -10.63501844 0.57801975 -7.9375 0.4375 C-7.17888672 0.39431641 -6.42027344 0.35113281 -5.63867188 0.30664062 C-3.75934562 0.20026367 -1.87969756 0.09960066 0 0 Z " fill="#53AFFD" transform="translate(32,46)"/>
<path d="M0 0 C3.25548753 3.02295271 5.68977058 6.20462309 8 10 C8 10.66 8 11.32 8 12 C6 11 4 10 2 9 C2.99 11.97 3.98 14.94 5 18 C1.32117927 14.71533863 -0.75150101 11.33639092 -3 7 C-3 6.34 -3 5.68 -3 5 C-2.01 4.67 -1.02 4.34 0 4 C0 2.68 0 1.36 0 0 Z " fill="#58A5EA" transform="translate(41,19)"/>
<path d="M0 0 C2.94721162 2.74395564 5.19168608 5.38337216 7 9 C6.67 9.66 6.34 10.32 6 11 C5.01 10.34 4.02 9.68 3 9 C3 10.98 3 12.96 3 15 C0.47411298 12.63707344 -0.88820837 11.33537489 -2 8 C-0.68 7.67 0.64 7.34 2 7 C2 6.01 2 5.02 2 4 C1.34 4 0.68 4 0 4 C0 2.68 0 1.36 0 0 Z " fill="#61A2E0" transform="translate(63,12)"/>
<path d="M0 0 C2 1 4 2 6 3 C6.73075648 5.3140622 7.40138258 7.64828869 8 10 C6.35 10 4.7 10 3 10 C0.96564469 6.27034861 0 4.33094958 0 0 Z " fill="#55AEFA" transform="translate(43,28)"/>
<path d="M0 0 C2.23281732 2.23281732 3.91143831 4.14341164 5.6875 6.6875 C6.12449219 7.31011719 6.56148438 7.93273438 7.01171875 8.57421875 C7.33785156 9.04472656 7.66398437 9.51523437 8 10 C7.67 10.66 7.34 11.32 7 12 C5.68 11.34 4.36 10.68 3 10 C3 11.32 3 12.64 3 14 C3.66 14.33 4.32 14.66 5 15 C4.01 15 3.02 15 2 15 C1.34 10.05 0.68 5.1 0 0 Z " fill="#5DA3E0" transform="translate(74,29)"/>
<path d="M0 0 C0.103125 0.61875 0.20625 1.2375 0.3125 1.875 C0.87525373 4.36526484 0.87525373 4.36526484 4 6 C3.67 7.32 3.34 8.64 3 10 C2.01 9.67 1.02 9.34 0 9 C0 8.01 0 7.02 0 6 C-0.66 6 -1.32 6 -2 6 C-2.66 4.35 -3.32 2.7 -4 1 C-2 0 -2 0 0 0 Z " fill="#53AFFB" transform="translate(53,38)"/>
<path d="M0 0 C2.0625 1.75 2.0625 1.75 4 4 C3.75 6.25 3.75 6.25 3 8 C2.67 7.01 2.34 6.02 2 5 C0.02 6.32 -1.96 7.64 -4 9 C-4 5.00095031 -2.27413033 3.19799578 0 0 Z " fill="#5CA7E3" transform="translate(40,33)"/>
<path d="M0 0 C0.66 1.65 1.32 3.3 2 5 C2.66 5 3.32 5 4 5 C4 5.99 4 6.98 4 8 C2.68 8.33 1.36 8.66 0 9 C0.33 7.68 0.66 6.36 1 5 C-0.32 5.33 -1.64 5.66 -3 6 C-3.33 4.35 -3.66 2.7 -4 1 C-2 0 -2 0 0 0 Z " fill="#55AEFC" transform="translate(61,11)"/>
<path d="M0 0 C0.33 0.66 0.66 1.32 1 2 C0.67 2.66 0.34 3.32 0 4 C1.32 4.33 2.64 4.66 4 5 C3.34 6.65 2.68 8.3 2 10 C-1 9 -1 9 -2.375 6.6875 C-3 4 -3 4 -1.625 1.6875 C-0.820625 0.8521875 -0.820625 0.8521875 0 0 Z " fill="#5EA2DF" transform="translate(50,19)"/>
<path d="M0 0 C3.04105488 1.52052744 4.71466648 2.48121179 6.375 5.5 C7 8 7 8 6 11 C6 10.34 6 9.68 6 9 C5.34 9 4.68 9 4 9 C1.3879169 7.11930017 1.00531495 6.02464205 0.3125 2.8125 C0.209375 1.884375 0.10625 0.95625 0 0 Z " fill="#55AFFC" transform="translate(76,37)"/>
<path d="M0 0 C1.35439668 2.70879335 1.06501451 5.00933268 1 8 C-2 7 -2 7 -3.6875 3.9375 C-4.120625 2.968125 -4.55375 1.99875 -5 1 C-2 0 -2 0 0 0 Z " fill="#54AFFD" transform="translate(74,29)"/>
<path d="M0 0 C0.93065133 2.60582371 1.14917407 3.64198224 0.0625 6.25 C-0.4634375 7.11625 -0.4634375 7.11625 -1 8 C-2.32 7.67 -3.64 7.34 -5 7 C-3.75023244 3.34683329 -3.32901247 2.21934164 0 0 Z " fill="#56ADFC" transform="translate(55,16)"/>
<path d="M0 0 C1.32 1.32 2.64 2.64 4 4 C3.67 4.66 3.34 5.32 3 6 C2.34 6 1.68 6 1 6 C1 7.98 1 9.96 1 12 C-3 7.25 -3 7.25 -3 5 C-2.01 4.67 -1.02 4.34 0 4 C0 2.68 0 1.36 0 0 Z " fill="#5E9FDD" transform="translate(41,19)"/>
<path d="M0 0 C0.33 0.66 0.66 1.32 1 2 C1.99 2.33 2.98 2.66 4 3 C3.67 4.65 3.34 6.3 3 8 C2.01 7.67 1.02 7.34 0 7 C-0.38133299 5.0085944 -0.71325582 3.00720923 -1 1 C-0.67 0.67 -0.34 0.34 0 0 Z " fill="#55AEFB" transform="translate(66,20)"/>
<path d="M0 0 C0.66 0 1.32 0 2 0 C3.6875 2.375 3.6875 2.375 5 5 C4.67 5.66 4.34 6.32 4 7 C3.01 6.34 2.02 5.68 1 5 C0.34 5.66 -0.32 6.32 -1 7 C-1.625 5.1875 -1.625 5.1875 -2 3 C-1.34 2.01 -0.68 1.02 0 0 Z " fill="#59A0DE" transform="translate(32,6)"/>
<path d="M0 0 C-0.33 1.65 -0.66 3.3 -1 5 C-1.99 5 -2.98 5 -4 5 C-4.33 5.66 -4.66 6.32 -5 7 C-5.66 6.67 -6.32 6.34 -7 6 C-3.61538462 0 -3.61538462 0 0 0 Z " fill="#56ADFB" transform="translate(27,21)"/>
<path d="M0 0 C1.43088528 2.86177057 0.59991697 4.93375773 0 8 C-1.32 8 -2.64 8 -4 8 C-3.40072174 4.64404172 -2.15377564 2.62198774 0 0 Z " fill="#5EACEB" transform="translate(7,43)"/>
<path d="M0 0 C1.37562854 1.28965176 2.70766393 2.62689293 4 4 C4 4.66 4 5.32 4 6 C2.35 6.33 0.7 6.66 -1 7 C-0.67 4.69 -0.34 2.38 0 0 Z " fill="#5CA7EE" transform="translate(70,23)"/>
<path d="" fill="#000000" transform="translate(0,0)"/>
<path d="" fill="#000000" transform="translate(0,0)"/>
<path d="" fill="#000000" transform="translate(0,0)"/>
<path d="" fill="#000000" transform="translate(0,0)"/>
<path d="" fill="#000000" transform="translate(0,0)"/>
<path d="" fill="#000000" transform="translate(0,0)"/>
<path d="" fill="#000000" transform="translate(0,0)"/>
<path d="" fill="#000000" transform="translate(0,0)"/>
<path d="" fill="#000000" transform="translate(0,0)"/>
<path d="" fill="#000000" transform="translate(0,0)"/>
<path d="" fill="#000000" transform="translate(0,0)"/>
<path d="" fill="#000000" transform="translate(0,0)"/>
<path d="" fill="#000000" transform="translate(0,0)"/>
<path d="" fill="#000000" transform="translate(0,0)"/>
<path d="" fill="#000000" transform="translate(0,0)"/>
<path d="" fill="#000000" transform="translate(0,0)"/>
<path d="" fill="#000000" transform="translate(0,0)"/>
<path d="" fill="#000000" transform="translate(0,0)"/>
<path d="" fill="#000000" transform="translate(0,0)"/>
<path d="" fill="#000000" transform="translate(0,0)"/>
<path d="" fill="#000000" transform="translate(0,0)"/>
<path d="" fill="#000000" transform="translate(0,0)"/>
<path d="" fill="#000000" transform="translate(0,0)"/>
<path d="" fill="#000000" transform="translate(0,0)"/>
<path d="" fill="#000000" transform="translate(0,0)"/>
<path d="" fill="#000000" transform="translate(0,0)"/>
<path d="" fill="#000000" transform="translate(0,0)"/>
<path d="" fill="#000000" transform="translate(0,0)"/>
<path d="" fill="#000000" transform="translate(0,0)"/>
<path d="" fill="#000000" transform="translate(0,0)"/>
<path d="" fill="#000000" transform="translate(0,0)"/>
<path d="" fill="#000000" transform="translate(0,0)"/>
<path d="" fill="#000000" transform="translate(0,0)"/>
<path d="" fill="#000000" transform="translate(0,0)"/>
<path d="" fill="#000000" transform="translate(0,0)"/>
<path d="" fill="#000000" transform="translate(0,0)"/>
<path d="" fill="#000000" transform="translate(0,0)"/>
<path d="" fill="#000000" transform="translate(0,0)"/>
<path d="" fill="#000000" transform="translate(0,0)"/>
<path d="" fill="#000000" transform="translate(0,0)"/>
<path d="" fill="#000000" transform="translate(0,0)"/>
<path d="" fill="#000000" transform="translate(0,0)"/>
<path d="" fill="#000000" transform="translate(0,0)"/>
<path d="" fill="#000000" transform="translate(0,0)"/>
<path d="" fill="#000000" transform="translate(0,0)"/>
<path d="" fill="#000000" transform="translate(0,0)"/>
<path d="" fill="#000000" transform="translate(0,0)"/>
<path d="" fill="#000000" transform="translate(0,0)"/>
<path d="" fill="#000000" transform="translate(0,0)"/>
<path d="" fill="#000000" transform="translate(0,0)"/>
<path d="" fill="#000000" transform="translate(0,0)"/>
<path d="" fill="#000000" transform="translate(0,0)"/>
<path d="" fill="#000000" transform="translate(0,0)"/>
<path d="" fill="#000000" transform="translate(0,0)"/>
<path d="" fill="#000000" transform="translate(0,0)"/>
<path d="" fill="#000000" transform="translate(0,0)"/>
<path d="" fill="#000000" transform="translate(0,0)"/>
<path d="" fill="#000000" transform="translate(0,0)"/>
</svg>
