<?xml version="1.0" encoding="UTF-8"?>
<svg version="1.1" xmlns="http://www.w3.org/2000/svg" width="243" height="52">
<path d="M0 0 C0.66 0 1.32 0 2 0 C3.32861328 1.71240234 3.32861328 1.71240234 4.8203125 4.0859375 C5.35527344 4.93414063 5.89023437 5.78234375 6.44140625 6.65625 C7.27478516 8.00203125 7.27478516 8.00203125 8.125 9.375 C8.68832031 10.26445312 9.25164063 11.15390625 9.83203125 12.0703125 C14 18.73098895 14 18.73098895 14 21 C14.66 21 15.32 21 16 21 C16.3403125 21.66644531 16.680625 22.33289063 17.03125 23.01953125 C20.36141361 29.35215621 24.07337058 35.0346048 28.4609375 40.6875 C30 43 30 43 30 46 C26.9375 46.625 26.9375 46.625 23 46 C20.2060003 42.95674306 18.16298133 39.5068138 16 36 C14.68729166 34.31704059 13.36639342 32.6396721 12 31 C11.7222876 31.71623535 11.4445752 32.4324707 11.15844727 33.17041016 C9.08412969 38.23707838 7.34375149 42.47537471 3 46 C-2.85581469 47.25563278 -8.48932846 46.94797213 -14.4375 46.625 C-16.04348145 46.57478777 -17.64961349 46.52916929 -19.25585938 46.48828125 C-23.17431478 46.37856976 -27.08549397 46.20637756 -31 46 C-31 45.34 -31 44.68 -31 44 C-30.34 44 -29.68 44 -29 44 C-28.79246094 43.35675781 -28.58492187 42.71351562 -28.37109375 42.05078125 C-26.43370171 37.73994596 -23.76392095 34.05305847 -21.0625 30.1875 C-20.48709473 29.35597412 -19.91168945 28.52444824 -19.31884766 27.66772461 C-18.13152749 25.95203554 -16.94238825 24.23760396 -15.75146484 22.52441406 C-14.09287934 20.13386847 -12.44437507 17.73680804 -10.80078125 15.3359375 C-10.30634521 14.6138208 -9.81190918 13.8917041 -9.30249023 13.14770508 C-8.37357823 11.79079771 -7.44470261 10.43386543 -6.51586914 9.0769043 C-5.35036955 7.38014957 -4.17564845 5.68973862 -3 4 C-2.44570313 3.19433594 -1.89140625 2.38867188 -1.3203125 1.55859375 C-0.88460937 1.04425781 -0.44890625 0.52992187 0 0 Z M0 11 C-1.03172307 12.34883854 -2.01748081 13.73286416 -2.984375 15.12890625 C-3.59023438 15.99966797 -4.19609375 16.87042969 -4.8203125 17.76757812 C-5.77550781 19.15106445 -5.77550781 19.15106445 -6.75 20.5625 C-7.99450318 22.355669 -9.23928987 24.14864127 -10.484375 25.94140625 C-11.08056641 26.8039502 -11.67675781 27.66649414 -12.29101562 28.55517578 C-13.81557721 30.73617003 -15.37689184 32.88364442 -16.953125 35.02734375 C-19.18904194 37.67300906 -19.18904194 37.67300906 -19 40 C-8.36164654 41.30081519 -8.36164654 41.30081519 1.4609375 38.39453125 C3.00131257 36.31072436 4.04841743 34.40563632 5 32 C5.45375 31.01 5.9075 30.02 6.375 29 C6.684375 28.01 6.684375 28.01 7 27 C8.32 27.33 9.64 27.66 11 28 C9.5137853 23.80591769 7.41721984 20.37332677 4.9375 16.6875 C4.22464844 15.61886719 3.51179688 14.55023438 2.77734375 13.44921875 C2.19082031 12.64097656 1.60429688 11.83273437 1 11 C0.67 11 0.34 11 0 11 Z " fill="#458CCD" transform="translate(33,3)"/>
<path d="M0 0 C2.31 0 4.62 0 7 0 C7.66 1.65 8.32 3.3 9 5 C9.66 5 10.32 5 11 5 C11.66 6.65 12.32 8.3 13 10 C14.85307724 8.21555525 16.64908509 6.48118766 18.16796875 4.3984375 C19.375 2.75 19.375 2.75 22 0 C25.3125 -0.375 25.3125 -0.375 28 0 C28.33 0.66 28.66 1.32 29 2 C28.22265625 3.7265625 28.22265625 3.7265625 27.0625 5.625 C26.381875 6.73875 25.70125 7.8525 25 9 C24.34 9 23.68 9 23 9 C22.30959426 10.65697379 21.6469365 12.3255761 21 14 C20.7215625 14.58136719 20.443125 15.16273437 20.15625 15.76171875 C19.90058824 19.42407352 22.31325469 21.78127161 24.4375 24.5625 C29 30.63001486 29 30.63001486 29 34 C25.875 34.4375 25.875 34.4375 22 34 C18.27371283 31.00742866 15.89692521 27.71407203 15 23 C12.03595495 25.80804268 9.55500981 28.18315774 8 32 C7.34 32 6.68 32 6 32 C6 32.66 6 33.32 6 34 C3.69 34 1.38 34 -1 34 C-0.32872778 28.21427281 2.97095967 24.45875041 6.28515625 19.83984375 C8.34461196 16.98221653 8.34461196 16.98221653 8 13 C7.34 13 6.68 13 6 13 C4.23828125 10.91796875 4.23828125 10.91796875 2.3125 8.1875 C1.66925781 7.29417969 1.02601563 6.40085937 0.36328125 5.48046875 C-0.08660156 4.66191406 -0.53648437 3.84335937 -1 3 C-0.67 2.01 -0.34 1.02 0 0 Z " fill="#D2D2D2" transform="translate(149,14)"/>
<path d="M0 0 C3.74985325 -0.0871747 7.49944555 -0.14045003 11.25 -0.1875 C12.31347656 -0.21263672 13.37695312 -0.23777344 14.47265625 -0.26367188 C15.49746094 -0.27333984 16.52226563 -0.28300781 17.578125 -0.29296875 C18.52075195 -0.3086792 19.46337891 -0.32438965 20.43457031 -0.34057617 C23.48225608 0.06402239 24.80580313 0.87510991 27 3 C28.69876246 8.09628739 28.90298846 13.11550235 26.5625 18 C25 20 25 20 24 21 C21.13732433 21.07325168 18.299281 21.09238205 15.4375 21.0625 C14.63119141 21.05798828 13.82488281 21.05347656 12.99414062 21.04882812 C10.99606244 21.03700518 8.99802217 21.01906914 7 21 C7 25.29 7 29.58 7 34 C4.69 34 2.38 34 0 34 C0 27.4 0 20.8 0 14 C6.27 14 12.54 14 19 14 C19.33 11.69 19.66 9.38 20 7 C13.4 7 6.8 7 0 7 C0 4.69 0 2.38 0 0 Z " fill="#D2D2D2" transform="translate(98,14)"/>
<path d="M0 0 C3.30881439 1.36367455 4.57449291 2.48271172 6.125 5.6875 C8.34805727 9.93766117 10.87304038 13.90962292 13.5625 17.875 C17.68424551 23.97914657 21.68671126 30.15085135 25.625 36.375 C26.15810791 37.21401855 26.69121582 38.05303711 27.24047852 38.91748047 C27.73088623 39.69494629 28.22129395 40.47241211 28.7265625 41.2734375 C29.16564941 41.96872559 29.60473633 42.66401367 30.05712891 43.38037109 C31 45 31 45 31 46 C25.99940723 46.96502667 25.99940723 46.96502667 23 46 C19.96681631 42.54727315 16 37.77479909 16 33 C15.34 33 14.68 33 14 33 C11 27.25 11 27.25 11 25 C10.34 25 9.68 25 9 25 C7.2734375 22.4453125 7.2734375 22.4453125 5.375 19.125 C4.74335937 18.03445312 4.11171875 16.94390625 3.4609375 15.8203125 C2 13 2 13 2 11 C1.34 11 0.68 11 0 11 C-0.226875 11.680625 -0.45375 12.36125 -0.6875 13.0625 C-2.35572357 16.79614324 -4.55729608 19.72163421 -7 23 C-8.74051964 21.48650466 -9.89382638 20.22065648 -10.8984375 18.1328125 C-11.05197259 14.90857551 -9.53734324 13.4071541 -7.625 10.875 C-5.10022851 7.56793748 -5.10022851 7.56793748 -3 4 C-2.34 4 -1.68 4 -1 4 C-0.67 2.68 -0.34 1.36 0 0 Z " fill="#458DCE" transform="translate(59,3)"/>
<path d="M0 0 C1.02996094 -0.00128906 2.05992187 -0.00257812 3.12109375 -0.00390625 C4.74724609 0.00189453 4.74724609 0.00189453 6.40625 0.0078125 C7.49035156 0.00394531 8.57445312 0.00007813 9.69140625 -0.00390625 C10.72136719 -0.00261719 11.75132812 -0.00132813 12.8125 0 C14.24045898 0.00169189 14.24045898 0.00169189 15.69726562 0.00341797 C17.90625 0.1328125 17.90625 0.1328125 18.90625 1.1328125 C18.90625 3.1128125 18.90625 5.0928125 18.90625 7.1328125 C12.63625 7.1328125 6.36625 7.1328125 -0.09375 7.1328125 C0.23625 8.7828125 0.56625 10.4328125 0.90625 12.1328125 C6.84625 12.4628125 12.78625 12.7928125 18.90625 13.1328125 C18.90625 15.7728125 18.90625 18.4128125 18.90625 21.1328125 C15.51087148 21.27856577 12.11630098 21.36702792 8.71875 21.4453125 C7.75904297 21.48720703 6.79933594 21.52910156 5.81054688 21.57226562 C-1.32329537 21.6956885 -1.32329537 21.6956885 -5.2109375 18.85546875 C-8.03000201 14.7789377 -8.58448454 10.88198128 -7.73046875 6.09765625 C-6.21929267 0.47977267 -5.63063618 0.00667137 0 0 Z " fill="#D4D4D4" transform="translate(193.09375,26.8671875)"/>
<path d="M0 0 C2.31 0 4.62 0 7 0 C7.33 8.58 7.66 17.16 8 26 C11.69213922 26.9230348 14.48149954 27.10346196 18.25 27.0625 C19.86648437 27.04896484 19.86648437 27.04896484 21.515625 27.03515625 C22.74539062 27.01775391 22.74539062 27.01775391 24 27 C24 29.31 24 31.62 24 34 C20.93601549 34.13530844 17.87802874 34.2342407 14.8125 34.3125 C13.94818359 34.35439453 13.08386719 34.39628906 12.19335938 34.43945312 C11.35224609 34.45556641 10.51113281 34.47167969 9.64453125 34.48828125 C8.48981323 34.52755737 8.48981323 34.52755737 7.31176758 34.56762695 C3.70942155 33.68311386 2.23804247 31.89365038 0 29 C-0.56762695 25.77026367 -0.56762695 25.77026367 -0.48828125 22.16796875 C-0.47216797 20.87568359 -0.45605469 19.58339844 -0.43945312 18.25195312 C-0.39768274 16.89711843 -0.35535809 15.54230072 -0.3125 14.1875 C-0.28740069 12.81319134 -0.26459036 11.43883884 -0.24414062 10.06445312 C-0.18526461 6.70852024 -0.1030642 3.3548191 0 0 Z " fill="#D2D2D2" transform="translate(219,14)"/>
<path d="M0 0 C1.4540625 0.0309375 1.4540625 0.0309375 2.9375 0.0625 C4.41875044 3.02500087 4.06740684 5.70162895 4.0703125 9.00390625 C4.07126923 9.68678207 4.07222595 10.3696579 4.07321167 11.07322693 C4.07389223 12.51651095 4.0720466 13.95979803 4.06787109 15.40307617 C4.06251282 17.61969828 4.06782443 19.83611852 4.07421875 22.05273438 C4.07355811 23.45312545 4.07227723 24.8535164 4.0703125 26.25390625 C4.06918457 27.53467041 4.06805664 28.81543457 4.06689453 30.13500977 C3.9375 33.0625 3.9375 33.0625 2.9375 34.0625 C-0.0625 34.1875 -0.0625 34.1875 -3.0625 34.0625 C-4.73923649 32.38576351 -4.19037817 30.33394924 -4.20144653 28.09594727 C-4.1994223 27.40428467 -4.19739807 26.71262207 -4.1953125 26 C-4.19626923 25.29351318 -4.19722595 24.58702637 -4.19821167 23.85913086 C-4.19889333 22.36279207 -4.19704005 20.86645033 -4.19287109 19.37011719 C-4.18752257 17.07219843 -4.19281651 14.77447514 -4.19921875 12.4765625 C-4.19855797 11.02604123 -4.1972768 9.57552009 -4.1953125 8.125 C-4.19733673 7.4333374 -4.19936096 6.7416748 -4.20144653 6.02905273 C-4.17205007 0.08514388 -4.17205007 0.08514388 0 0 Z " fill="#C1C1C1" transform="translate(137.0625,13.9375)"/>
<path d="M0 0 C4.14581887 -0.02886751 8.29161216 -0.04675327 12.4375 -0.0625 C14.21350586 -0.07506836 14.21350586 -0.07506836 16.02539062 -0.08789062 C17.15009766 -0.09111328 18.27480469 -0.09433594 19.43359375 -0.09765625 C20.47572021 -0.10289307 21.51784668 -0.10812988 22.59155273 -0.11352539 C25 0 25 0 26 1 C26 2.98 26 4.96 26 7 C17.42 7 8.84 7 0 7 C0 4.69 0 2.38 0 0 Z " fill="#CECECE" transform="translate(186,14)"/>
</svg>
